<svg xmlns="http://www.w3.org/2000/svg" xmlns:xlink="http://www.w3.org/1999/xlink" width="200" zoomAndPan="magnify" viewBox="0 0 150 149.999998" height="200" preserveAspectRatio="xMidYMid meet" version="1.0"><defs><filter x="0%" y="0%" width="100%" height="100%" id="id1"><feColorMatrix values="0 0 0 0 1 0 0 0 0 1 0 0 0 0 1 0 0 0 1 0" color-interpolation-filters="sRGB"/></filter><g/><mask id="id2"><g filter="url(#id1)"><rect x="-15" width="180" fill="rgb(0%, 0%, 0%)" y="-15" height="179.999997" fill-opacity="0.6667"/></g></mask><clipPath id="id3"><path d="M 49 111 L 61 111 L 61 122.359375 L 49 122.359375 Z M 49 111 " clip-rule="nonzero"/></clipPath><clipPath id="id4"><path d="M 0.726562 1.367188 L 145.722656 1.367188 L 145.722656 122.359375 L 0.726562 122.359375 Z M 0.726562 1.367188 " clip-rule="nonzero"/></clipPath><clipPath id="id5"><rect x="0" width="146" y="0" height="124"/></clipPath></defs><g mask="url(#id2)"><g transform="matrix(1, 0, 0, 1, 2, 13)"><g clip-path="url(#id5)"><path fill="rgb(100%, 87.059021%, 34.899902%)" d="M 38.464844 45.15625 L 51.890625 45.15625 L 51.890625 58.582031 L 38.464844 58.582031 Z M 38.464844 45.15625 " fill-opacity="1" fill-rule="evenodd"/><path fill="rgb(100%, 34.118652%, 34.118652%)" d="M 74.667969 34.609375 L 85.453125 34.609375 L 85.453125 45.402344 L 74.667969 45.402344 Z M 74.667969 34.609375 " fill-opacity="1" fill-rule="evenodd"/><path fill="rgb(100%, 87.059021%, 34.899902%)" d="M 53.808594 60.855469 L 64.597656 60.855469 L 64.597656 71.640625 L 53.808594 71.640625 Z M 53.808594 60.855469 " fill-opacity="1" fill-rule="evenodd"/><path fill="rgb(100%, 34.118652%, 34.118652%)" d="M 40.265625 72.601562 L 45.660156 72.601562 L 45.660156 77.996094 L 40.265625 77.996094 Z M 40.265625 72.601562 " fill-opacity="1" fill-rule="evenodd"/><path fill="rgb(100%, 34.118652%, 34.118652%)" d="M 36.003906 30.71875 L 41.40625 30.71875 L 41.40625 36.113281 L 36.003906 36.113281 Z M 36.003906 30.71875 " fill-opacity="1" fill-rule="evenodd"/><path fill="rgb(100%, 34.118652%, 34.118652%)" d="M 62.378906 45.816406 L 67.769531 45.816406 L 67.769531 51.210938 L 62.378906 51.210938 Z M 62.378906 45.816406 " fill-opacity="1" fill-rule="evenodd"/><path fill="rgb(100%, 34.118652%, 34.118652%)" d="M 91.144531 30.058594 L 96.539062 30.058594 L 96.539062 35.449219 L 91.144531 35.449219 Z M 91.144531 30.058594 " fill-opacity="1" fill-rule="evenodd"/><path fill="rgb(100%, 34.118652%, 34.118652%)" d="M 86.699219 19.988281 L 94.273438 19.988281 L 94.273438 27.570312 L 86.699219 27.570312 Z M 86.699219 19.988281 " fill-opacity="1" fill-rule="evenodd"/><path fill="rgb(100%, 34.118652%, 34.118652%)" d="M 59.320312 8.726562 L 66.898438 8.726562 L 66.898438 16.296875 L 59.320312 16.296875 Z M 59.320312 8.726562 " fill-opacity="1" fill-rule="evenodd"/><path fill="rgb(100%, 34.118652%, 34.118652%)" d="M 77.6875 17.085938 L 83.078125 17.085938 L 83.078125 22.476562 L 77.6875 22.476562 Z M 77.6875 17.085938 " fill-opacity="1" fill-rule="evenodd"/><path fill="rgb(100%, 34.118652%, 34.118652%)" d="M 105.050781 33.59375 L 110.445312 33.59375 L 110.445312 38.984375 L 105.050781 38.984375 Z M 105.050781 33.59375 " fill-opacity="1" fill-rule="evenodd"/><path fill="rgb(100%, 87.059021%, 34.899902%)" d="M 74.597656 50.5625 L 88.386719 50.5625 L 88.386719 64.351562 L 74.597656 64.351562 Z M 74.597656 50.5625 " fill-opacity="1" fill-rule="evenodd"/><path fill="rgb(100%, 87.059021%, 34.899902%)" d="M 45.765625 85.855469 L 61.59375 85.855469 L 61.59375 101.675781 L 45.765625 101.675781 Z M 45.765625 85.855469 " fill-opacity="1" fill-rule="evenodd"/><path fill="rgb(100%, 34.118652%, 34.118652%)" d="M 65.605469 75.625 L 76.390625 75.625 L 76.390625 86.414062 L 65.605469 86.414062 Z M 65.605469 75.625 " fill-opacity="1" fill-rule="evenodd"/><path fill="rgb(100%, 87.059021%, 34.899902%)" d="M 82.601562 89.683594 L 93.386719 89.683594 L 93.386719 100.46875 L 82.601562 100.46875 Z M 82.601562 89.683594 " fill-opacity="1" fill-rule="evenodd"/><g clip-path="url(#id3)"><path fill="rgb(100%, 34.118652%, 34.118652%)" d="M 49.265625 111.574219 L 60.050781 111.574219 L 60.050781 122.359375 L 49.265625 122.359375 Z M 49.265625 111.574219 " fill-opacity="1" fill-rule="evenodd"/></g><path fill="rgb(100%, 34.118652%, 34.118652%)" d="M 90.777344 45.886719 L 101.5625 45.886719 L 101.5625 56.671875 L 90.777344 56.671875 Z M 90.777344 45.886719 " fill-opacity="1" fill-rule="evenodd"/><path fill="rgb(100%, 34.118652%, 34.118652%)" d="M 53.59375 75.054688 L 58.988281 75.054688 L 58.988281 80.445312 L 53.59375 80.445312 Z M 53.59375 75.054688 " fill-opacity="1" fill-rule="evenodd"/><path fill="rgb(100%, 34.118652%, 34.118652%)" d="M 71.871094 67.148438 L 77.261719 67.148438 L 77.261719 72.542969 L 71.871094 72.542969 Z M 71.871094 67.148438 " fill-opacity="1" fill-rule="evenodd"/><path fill="rgb(100%, 34.118652%, 34.118652%)" d="M 67.222656 93.84375 L 76.886719 93.84375 L 76.886719 103.496094 L 67.222656 103.496094 Z M 67.222656 93.84375 " fill-opacity="1" fill-rule="evenodd"/><path fill="rgb(100%, 34.118652%, 34.118652%)" d="M 64.117188 113.195312 L 70.511719 113.195312 L 70.511719 119.578125 L 64.117188 119.578125 Z M 64.117188 113.195312 " fill-opacity="1" fill-rule="evenodd"/><path fill="rgb(100%, 34.118652%, 34.118652%)" d="M 79.972656 72.273438 L 89.628906 72.273438 L 89.628906 81.925781 L 79.972656 81.925781 Z M 79.972656 72.273438 " fill-opacity="1" fill-rule="evenodd"/><path fill="rgb(100%, 34.118652%, 34.118652%)" d="M 92.0625 63.121094 L 101.722656 63.121094 L 101.722656 72.773438 L 92.0625 72.773438 Z M 92.0625 63.121094 " fill-opacity="1" fill-rule="evenodd"/><path fill="rgb(100%, 87.059021%, 34.899902%)" d="M 51.652344 22.628906 L 67.46875 22.628906 L 67.46875 38.445312 L 51.652344 38.445312 Z M 51.652344 22.628906 " fill-opacity="1" fill-rule="evenodd"/><g clip-path="url(#id4)"><path fill="rgb(100%, 34.118652%, 34.118652%)" d="M 0.957031 56.695312 C 4.179688 56.609375 6.820312 55.75 8.863281 54.078125 C 10.882812 52.421875 12.238281 50.148438 12.921875 47.265625 C 13.59375 44.371094 13.933594 39.402344 13.980469 32.398438 C 14.015625 25.394531 14.148438 20.773438 14.363281 18.5625 C 14.75 15.042969 15.433594 12.199219 16.46875 10.058594 C 17.5 7.933594 18.769531 6.214844 20.273438 4.921875 C 21.796875 3.648438 23.734375 2.664062 26.074219 2 C 27.660156 1.59375 30.265625 1.375 33.871094 1.375 L 37.390625 1.375 L 37.390625 11.261719 L 35.433594 11.261719 C 31.074219 11.261719 28.195312 12.03125 26.753906 13.625 C 25.335938 15.195312 24.625 18.695312 24.625 24.15625 C 24.625 35.15625 24.386719 42.097656 23.917969 45 C 23.171875 49.492188 21.875 52.953125 20.050781 55.378906 C 18.222656 57.828125 15.367188 59.976562 11.453125 61.863281 C 16.074219 63.796875 19.425781 66.742188 21.507812 70.714844 C 23.570312 74.667969 24.617188 81.175781 24.617188 90.207031 C 24.617188 98.371094 24.679688 103.25 24.859375 104.796875 C 25.203125 107.65625 26.035156 109.65625 27.414062 110.789062 C 28.769531 111.90625 31.453125 112.484375 35.429688 112.484375 L 37.382812 112.484375 L 37.382812 122.367188 L 33.863281 122.367188 C 29.757812 122.367188 26.777344 122.03125 24.925781 121.359375 C 22.238281 120.394531 20.027344 118.824219 18.261719 116.675781 C 16.5 114.503906 15.34375 111.777344 14.828125 108.449219 C 14.308594 105.136719 14.007812 99.703125 13.964844 92.140625 C 13.917969 84.597656 13.578125 79.375 12.90625 76.476562 C 12.222656 73.574219 10.867188 71.300781 8.847656 69.621094 C 6.804688 67.925781 4.164062 67.042969 0.941406 66.980469 L 0.941406 56.710938 Z M 145.492188 56.695312 L 145.492188 66.964844 C 142.273438 67.027344 139.628906 67.910156 137.585938 69.605469 C 135.570312 71.285156 134.214844 73.558594 133.527344 76.417969 C 132.863281 79.296875 132.496094 84.234375 132.472656 91.238281 C 132.425781 98.265625 132.300781 102.863281 132.085938 105.097656 C 131.703125 108.664062 131.007812 111.5 129.984375 113.625 C 128.953125 115.75 127.6875 117.445312 126.175781 118.71875 C 124.652344 120.003906 122.71875 120.972656 120.375 121.636719 C 118.789062 122.105469 116.183594 122.34375 112.578125 122.34375 L 109.050781 122.34375 L 109.050781 112.460938 L 111.007812 112.460938 C 115.367188 112.460938 118.25 111.667969 119.691406 110.097656 C 121.109375 108.523438 121.816406 104.980469 121.816406 99.480469 C 121.816406 88.996094 122.007812 82.332031 122.394531 79.519531 C 123.066406 74.882812 124.414062 71.140625 126.417969 68.351562 C 128.433594 65.578125 131.292969 63.40625 134.992188 61.839844 C 130.152344 59.546875 126.761719 56.496094 124.78125 52.691406 C 122.804688 48.882812 121.816406 42.484375 121.816406 33.460938 C 121.816406 25.273438 121.730469 20.398438 121.515625 18.785156 C 121.214844 15.96875 120.398438 14.019531 119.019531 12.902344 C 117.664062 11.808594 114.984375 11.246094 111.007812 11.246094 L 109.050781 11.246094 L 109.050781 1.359375 L 112.578125 1.359375 C 116.6875 1.359375 119.667969 1.683594 121.515625 2.371094 C 124.207031 3.292969 126.417969 4.84375 128.179688 7.007812 C 129.945312 9.195312 131.101562 11.945312 131.617188 15.257812 C 132.132812 18.59375 132.433594 24.023438 132.480469 31.566406 C 132.503906 39.132812 132.863281 44.332031 133.535156 47.210938 C 134.222656 50.09375 135.578125 52.367188 137.59375 54.046875 C 139.636719 55.726562 142.28125 56.601562 145.5 56.6875 Z M 145.492188 56.695312 " fill-opacity="1" fill-rule="nonzero"/></g></g></g></g><g fill="rgb(32.939148%, 32.939148%, 32.939148%)" fill-opacity="1"><g transform="translate(33.96297, 105.412493)"><g><path d="M 17.921875 0.609375 C 12.953125 0.609375 8.976562 -0.796875 6 -3.609375 C 3.019531 -6.429688 1.53125 -10.175781 1.53125 -14.84375 L 1.53125 -20.234375 C 1.53125 -20.484375 1.617188 -20.695312 1.796875 -20.875 C 1.984375 -21.0625 2.207031 -21.15625 2.46875 -21.15625 L 9.53125 -21.15625 C 9.789062 -21.15625 10.007812 -21.0625 10.1875 -20.875 C 10.375 -20.695312 10.46875 -20.484375 10.46875 -20.234375 L 10.46875 -14.765625 C 10.46875 -12.460938 11.144531 -10.601562 12.5 -9.1875 C 13.851562 -7.78125 15.660156 -7.078125 17.921875 -7.078125 C 20.179688 -7.078125 22.023438 -7.78125 23.453125 -9.1875 C 24.890625 -10.601562 25.609375 -12.460938 25.609375 -14.765625 L 25.609375 -52.921875 C 25.609375 -53.179688 25.695312 -53.398438 25.875 -53.578125 C 26.0625 -53.753906 26.28125 -53.84375 26.53125 -53.84375 L 33.53125 -53.84375 C 33.789062 -53.84375 34.007812 -53.753906 34.1875 -53.578125 C 34.375 -53.398438 34.46875 -53.179688 34.46875 -52.921875 L 34.46875 -14.84375 C 34.46875 -11.769531 33.773438 -9.066406 32.390625 -6.734375 C 31.003906 -4.398438 29.050781 -2.59375 26.53125 -1.3125 C 24.019531 -0.03125 21.148438 0.609375 17.921875 0.609375 Z M 17.921875 0.609375 "/></g></g></g><g fill="rgb(32.939148%, 32.939148%, 32.939148%)" fill-opacity="1"><g transform="translate(76.340978, 105.412493)"><g><path d="M 36.390625 -53.84375 C 36.640625 -53.84375 36.851562 -53.753906 37.03125 -53.578125 C 37.21875 -53.398438 37.3125 -53.179688 37.3125 -52.921875 L 37.3125 -47 C 37.3125 -46.738281 37.21875 -46.519531 37.03125 -46.34375 C 36.851562 -46.164062 36.640625 -46.078125 36.390625 -46.078125 L 24.46875 -46.078125 C 24.207031 -46.078125 24.078125 -45.945312 24.078125 -45.6875 L 24.078125 -0.921875 C 24.078125 -0.660156 23.984375 -0.441406 23.796875 -0.265625 C 23.617188 -0.0859375 23.40625 0 23.15625 0 L 16.078125 0 C 15.816406 0 15.597656 -0.0859375 15.421875 -0.265625 C 15.242188 -0.441406 15.15625 -0.660156 15.15625 -0.921875 L 15.15625 -45.6875 C 15.15625 -45.945312 15.023438 -46.078125 14.765625 -46.078125 L 3.3125 -46.078125 C 3.050781 -46.078125 2.832031 -46.164062 2.65625 -46.34375 C 2.476562 -46.519531 2.390625 -46.738281 2.390625 -47 L 2.390625 -52.921875 C 2.390625 -53.179688 2.476562 -53.398438 2.65625 -53.578125 C 2.832031 -53.753906 3.050781 -53.84375 3.3125 -53.84375 Z M 36.390625 -53.84375 "/></g></g></g></svg>